<svg width="321" height="83" viewBox="0 0 321 83" fill="none" xmlns="http://www.w3.org/2000/svg">
<path d="M37.9391 58.1404C37.9391 59.2353 38.3224 60.166 39.0888 60.9324C39.8553 61.6441 40.786 62 41.8809 62H37.9391H34.0795H29.8093H25.9497C27.0446 62 27.948 61.6441 28.6597 60.9324C29.4261 60.166 29.8093 59.2353 29.8093 58.1404V44.5086C29.8093 42.045 29.5082 39.992 28.906 38.3496C28.3038 36.7072 27.4552 35.3659 26.3603 34.3258C25.2654 33.2308 23.9515 32.437 22.4186 31.9443C20.9404 31.4516 19.3528 31.1231 17.6557 30.9589C17.3272 30.9041 17.0535 30.9041 16.8345 30.9589C16.6155 30.9589 16.4512 30.9863 16.3418 31.041C15.5753 31.3147 14.9184 31.7801 14.3709 32.437C13.8782 33.094 13.6318 33.8604 13.6318 34.7364V58.1404C13.6318 59.2353 13.9877 60.166 14.6994 60.9324C15.4658 61.6441 16.3965 62 17.4914 62H13.6318H9.77221H5.502H1.64239C2.73731 62 3.64063 61.6441 4.35233 60.9324C5.11877 60.166 5.502 59.2353 5.502 58.1404V4.3522C5.502 3.25727 5.11877 2.32659 4.35233 1.56014C3.64063 0.793692 2.73731 0.410468 1.64239 0.410468H5.502H9.36161H13.6318H17.4914C16.3965 0.410468 15.4658 0.793692 14.6994 1.56014C13.9877 2.32659 13.6318 3.25727 13.6318 4.3522V23.9787H16.6702C18.5316 23.8692 20.2561 23.5955 21.8438 23.1575C23.4314 22.6648 24.8274 21.8984 26.0318 20.8582C27.2363 19.7633 28.1669 18.3672 28.8239 16.6701C29.4809 14.973 29.8093 12.8379 29.8093 10.2648V6.24095V4.3522C29.8093 3.25727 29.4261 2.32659 28.6597 1.56014C27.948 0.793692 27.0446 0.410468 25.9497 0.410468H29.8093H33.7511H37.9391H41.8809C40.786 0.410468 39.8553 0.793692 39.0888 1.56014C38.3224 2.32659 37.9391 3.25727 37.9391 4.3522V6.24095V10.2648C38.0486 16.8343 36.1052 21.9805 32.1087 25.7032C31.5065 26.3054 30.7948 26.8803 29.9736 27.4277C30.6853 27.9205 31.397 28.4679 32.1087 29.0701C36.1052 32.8476 38.0486 37.9938 37.9391 44.5086V58.1404ZM96.7591 62H80.8279C81.9228 62 82.8262 61.6168 83.5379 60.8503C84.3043 60.0839 84.6875 59.1532 84.6875 58.0583V49.4357C84.6875 48.3408 84.3043 47.4101 83.5379 46.6437C82.8262 45.8772 81.9228 45.494 80.8279 45.494H66.3749C65.28 45.494 64.3493 45.1382 63.5828 44.4265C62.8711 43.66 62.5153 42.7293 62.5153 41.6344V34.7364C62.5153 35.8313 62.8711 36.762 63.5828 37.5284C64.3493 38.2401 65.28 38.596 66.3749 38.596H84.6875V31.1231V11.1681C84.6875 10.0732 84.3043 9.16987 83.5379 8.45817C82.8262 7.69172 81.9228 7.3085 80.8279 7.3085H71.5484C69.6871 7.41799 67.9625 7.71909 66.3749 8.21181C64.7873 8.64978 63.3912 9.38886 62.1868 10.429C61.0371 11.4692 60.1065 12.8379 59.3948 14.535C58.7378 16.2321 58.4093 18.3672 58.4093 20.9403V58.0583C58.4093 59.1532 58.7652 60.0839 59.4769 60.8503C60.2433 61.6168 61.174 62 62.2689 62H46.4199C47.5148 62 48.4181 61.6168 49.1298 60.8503C49.8963 60.0839 50.2795 59.1532 50.2795 58.0583V20.9403C50.2795 14.4255 52.223 9.27936 56.11 5.50187C57.9714 3.74999 60.1612 2.49083 62.6795 1.72438C65.2526 0.957933 68.1815 0.519962 71.4663 0.410468H82.6345C84.0579 0.410468 85.3719 0.684201 86.5763 1.23167C87.8354 1.77913 88.9304 2.5182 89.861 3.44888C90.7917 4.37957 91.5308 5.4745 92.0783 6.73366C92.6257 7.93808 92.8995 9.25199 92.8995 10.6754V19.8728V58.0583C92.8995 59.1532 93.2553 60.0839 93.967 60.8503C94.7335 61.6168 95.6641 62 96.7591 62ZM141.218 4.3522V11.2502C141.218 10.1553 140.835 9.22462 140.068 8.45817C139.356 7.69172 138.453 7.3085 137.358 7.3085H127.997C126.902 7.3085 125.971 7.69172 125.204 8.45817C124.493 9.22462 124.137 10.1553 124.137 11.2502V58.1404C124.137 59.2353 124.493 60.166 125.204 60.9324C125.971 61.6441 126.902 62 127.997 62H112.147C113.242 62 114.146 61.6441 114.857 60.9324C115.624 60.166 116.007 59.2353 116.007 58.1404V11.2502C116.007 10.1553 115.624 9.22462 114.857 8.45817C114.146 7.69172 113.242 7.3085 112.147 7.3085H102.457C101.362 7.36324 100.432 7.77384 99.6653 8.54029C98.9536 9.25199 98.5978 10.1553 98.5978 11.2502V3.44888V3.85949C98.7073 2.9288 99.1179 2.13498 99.8296 1.47802C100.596 0.766319 101.472 0.410468 102.457 0.410468H137.358C138.453 0.410468 139.356 0.793692 140.068 1.56014C140.835 2.32659 141.218 3.25727 141.218 4.3522ZM196.04 62H180.109C181.204 62 182.107 61.6168 182.819 60.8503C183.585 60.0839 183.969 59.1532 183.969 58.0583V49.4357C183.969 48.3408 183.585 47.4101 182.819 46.6437C182.107 45.8772 181.204 45.494 180.109 45.494H165.656C164.561 45.494 163.63 45.1382 162.864 44.4265C162.152 43.66 161.796 42.7293 161.796 41.6344V34.7364C161.796 35.8313 162.152 36.762 162.864 37.5284C163.63 38.2401 164.561 38.596 165.656 38.596H183.969V31.1231V11.1681C183.969 10.0732 183.585 9.16987 182.819 8.45817C182.107 7.69172 181.204 7.3085 180.109 7.3085H170.829C168.968 7.41799 167.244 7.71909 165.656 8.21181C164.068 8.64978 162.672 9.38886 161.468 10.429C160.318 11.4692 159.387 12.8379 158.676 14.535C158.019 16.2321 157.69 18.3672 157.69 20.9403V58.0583C157.69 59.1532 158.046 60.0839 158.758 60.8503C159.524 61.6168 160.455 62 161.55 62H145.701C146.796 62 147.699 61.6168 148.411 60.8503C149.177 60.0839 149.561 59.1532 149.561 58.0583V20.9403C149.561 14.4255 151.504 9.27936 155.391 5.50187C157.252 3.74999 159.442 2.49083 161.961 1.72438C164.534 0.957933 167.463 0.519962 170.747 0.410468H181.916C183.339 0.410468 184.653 0.684201 185.857 1.23167C187.116 1.77913 188.211 2.5182 189.142 3.44888C190.073 4.37957 190.812 5.4745 191.359 6.73366C191.907 7.93808 192.18 9.25199 192.18 10.6754V19.8728V58.0583C192.18 59.1532 192.536 60.0839 193.248 60.8503C194.014 61.6168 194.945 62 196.04 62ZM223.007 55.102C224.102 55.102 225.006 55.4852 225.717 56.2516C226.484 56.9633 226.867 57.8667 226.867 58.9616V62H212.003C210.58 62 209.239 61.7263 207.979 61.1788C206.775 60.6313 205.708 59.8923 204.777 58.9616C203.846 58.0309 203.107 56.9633 202.56 55.7589C202.012 54.4998 201.738 53.1585 201.738 51.7351V4.3522C201.738 3.25727 201.355 2.32659 200.589 1.56014C199.877 0.793692 198.974 0.410468 197.879 0.410468H213.81C212.715 0.410468 211.784 0.793692 211.018 1.56014C210.306 2.32659 209.95 3.25727 209.95 4.3522V51.2424C209.95 52.3373 210.306 53.268 211.018 54.0344C211.784 54.7461 212.715 55.102 213.81 55.102H223.007ZM266.578 5.58399C270.52 9.30674 272.491 14.4255 272.491 20.9403V42.045C272.491 48.6145 270.52 53.7333 266.578 57.4013C264.771 59.1532 262.582 60.3302 260.009 60.9324C257.49 61.5347 254.589 61.8905 251.304 62C248.019 61.8905 245.09 61.5347 242.517 60.9324C239.999 60.3302 237.809 59.1532 235.948 57.4013C232.061 53.6786 230.117 48.5598 230.117 42.045V20.9403C230.117 14.4255 232.061 9.30674 235.948 5.58399C237.809 3.83211 239.999 2.57295 242.517 1.8065C245.09 0.985306 248.019 0.519962 251.304 0.410468C254.589 0.519962 257.49 0.985306 260.009 1.8065C262.582 2.57295 264.771 3.83211 266.578 5.58399ZM264.361 20.9403C264.361 18.422 264.005 16.3143 263.293 14.6171C262.636 12.8652 261.706 11.4692 260.501 10.429C259.352 9.38886 257.983 8.64978 256.395 8.21181C254.808 7.71909 253.111 7.41799 251.304 7.3085C249.497 7.41799 247.8 7.71909 246.212 8.21181C244.625 8.64978 243.229 9.38886 242.024 10.429C240.875 11.4692 239.944 12.8652 239.232 14.6171C238.575 16.3143 238.247 18.422 238.247 20.9403V42.045C238.247 44.6181 238.575 46.7258 239.232 48.3682C239.944 50.0106 240.875 51.3245 242.024 52.3099C243.229 53.2406 244.625 53.9249 246.212 54.3629C247.8 54.8009 249.497 55.0472 251.304 55.102C253.111 55.0472 254.808 54.8009 256.395 54.3629C257.983 53.9249 259.352 53.2406 260.501 52.3099C261.706 51.3245 262.636 50.0106 263.293 48.3682C264.005 46.7258 264.361 44.6181 264.361 42.045V20.9403ZM318.368 51.7351C318.368 53.1585 318.094 54.4998 317.547 55.7589C316.999 56.9633 316.26 58.0309 315.329 58.9616C314.399 59.8923 313.304 60.6313 312.045 61.1788C310.84 61.7263 309.526 62 308.103 62H297.017C293.732 61.9453 290.803 61.6168 288.23 61.0146C285.712 60.3576 283.522 59.1532 281.66 57.4013C277.719 53.7333 275.748 48.6145 275.748 42.045V21.0224C275.748 14.4529 277.719 9.30674 281.66 5.58399C283.522 3.83211 285.712 2.57295 288.23 1.8065C290.803 0.985306 293.732 0.519962 297.017 0.410468H304.408C305.502 0.410468 306.406 0.793692 307.117 1.56014C307.884 2.32659 308.267 3.25727 308.267 4.3522V11.2502C308.267 10.1553 307.884 9.22462 307.117 8.45817C306.406 7.69172 305.502 7.3085 304.408 7.3085H297.099C295.238 7.41799 293.513 7.71909 291.925 8.21181C290.338 8.64978 288.942 9.41623 287.737 10.5112C286.533 11.5513 285.602 12.92 284.945 14.6171C284.288 16.3143 283.96 18.4494 283.96 21.0224V42.045C283.96 44.6181 284.288 46.7258 284.945 48.3682C285.602 50.0106 286.533 51.3245 287.737 52.3099C288.942 53.2953 290.338 54.007 291.925 54.445C293.513 54.8282 295.238 55.0472 297.099 55.102H306.296C307.391 55.102 308.322 54.7461 309.088 54.0344C309.855 53.268 310.238 52.3373 310.238 51.2424V38.5139C310.238 37.4189 309.855 36.5156 309.088 35.8039C308.322 35.0375 307.391 34.6542 306.296 34.6542H291.925C290.83 34.6542 289.9 34.2984 289.133 33.5867C288.422 32.8202 288.066 31.8896 288.066 30.7946V23.8966C288.066 24.9915 288.422 25.9222 289.133 26.6887C289.9 27.4004 290.83 27.7562 291.925 27.7562H314.508C315.548 27.7562 316.424 28.1121 317.136 28.8238C317.848 29.4807 318.258 30.3019 318.368 31.2874V51.7351Z" fill="#2C4156"/>
</svg>
