<svg width="212" height="42" viewBox="0 0 212 42" fill="none" xmlns="http://www.w3.org/2000/svg">
<path d="M24.2928 39.4269C24.2928 40.1569 24.5482 40.7773 25.0592 41.2883C25.5702 41.7628 26.1906 42 26.9206 42H24.2928H21.7197H18.8729H16.2998C17.0298 42 17.632 41.7628 18.1064 41.2883C18.6174 40.7773 18.8729 40.1569 18.8729 39.4269V30.339C18.8729 28.6967 18.6722 27.328 18.2707 26.2331C17.8692 25.1382 17.3035 24.244 16.5735 23.5505C15.8436 22.8206 14.9677 22.2913 13.9457 21.9629C12.9603 21.6344 11.9019 21.4154 10.7704 21.3059C10.5515 21.2694 10.369 21.2694 10.223 21.3059C10.077 21.3059 9.9675 21.3242 9.8945 21.3607C9.38354 21.5432 8.94557 21.8534 8.58059 22.2914C8.25212 22.7293 8.08788 23.2403 8.08788 23.8242V39.4269C8.08788 40.1569 8.32511 40.7773 8.79958 41.2883C9.31054 41.7628 9.931 42 10.661 42H8.08788H5.5148H2.668H0.094925C0.824875 42 1.42708 41.7628 1.90155 41.2883C2.41252 40.7773 2.668 40.1569 2.668 39.4269V3.56813C2.668 2.83818 2.41252 2.21772 1.90155 1.70676C1.42708 1.19579 0.824875 0.940312 0.094925 0.940312H2.668H5.24107H8.08788H10.661C9.931 0.940312 9.31054 1.19579 8.79958 1.70676C8.32511 2.21772 8.08788 2.83818 8.08788 3.56813V16.6525H10.1135C11.3544 16.5795 12.5041 16.397 13.5625 16.105C14.6209 15.7765 15.5516 15.2656 16.3546 14.5721C17.1575 13.8422 17.778 12.9115 18.2159 11.7801C18.6539 10.6486 18.8729 9.22525 18.8729 7.50986V4.8273V3.56813C18.8729 2.83818 18.6174 2.21772 18.1064 1.70676C17.632 1.19579 17.0298 0.940312 16.2998 0.940312H18.8729H21.5007H24.2928H26.9206C26.1906 0.940312 25.5702 1.19579 25.0592 1.70676C24.5482 2.21772 24.2928 2.83818 24.2928 3.56813V4.8273V7.50986C24.3658 11.8896 23.0701 15.3203 20.4058 17.8022C20.0043 18.2036 19.5298 18.5869 18.9824 18.9518C19.4568 19.2803 19.9313 19.6453 20.4058 20.0468C23.0701 22.5651 24.3658 25.9958 24.2928 30.339V39.4269ZM63.506 42H52.8853C53.6152 42 54.2174 41.7445 54.6919 41.2336C55.2029 40.7226 55.4584 40.1021 55.4584 39.3722V33.6238C55.4584 32.8939 55.2029 32.2734 54.6919 31.7625C54.2174 31.2515 53.6152 30.996 52.8853 30.996H43.2499C42.52 30.996 41.8995 30.7588 41.3886 30.2843C40.9141 29.7733 40.6769 29.1529 40.6769 28.4229V23.8242C40.6769 24.5542 40.9141 25.1747 41.3886 25.6856C41.8995 26.1601 42.52 26.3973 43.2499 26.3973H55.4584V21.4154V8.11207C55.4584 7.38212 55.2029 6.77991 54.6919 6.30545C54.2174 5.79448 53.6152 5.539 52.8853 5.539H46.699C45.458 5.61199 44.3084 5.81273 43.2499 6.14121C42.1915 6.43319 41.2608 6.9259 40.4579 7.61936C39.6914 8.31281 39.071 9.22525 38.5965 10.3567C38.1585 11.4881 37.9396 12.9115 37.9396 14.6269V39.3722C37.9396 40.1021 38.1768 40.7226 38.6513 41.2336C39.1622 41.7445 39.7827 42 40.5126 42H29.9466C30.6765 42 31.2788 41.7445 31.7532 41.2336C32.2642 40.7226 32.5197 40.1021 32.5197 39.3722V14.6269C32.5197 10.2837 33.8153 6.85291 36.4067 4.33458C37.6476 3.16666 39.1075 2.32722 40.7864 1.81625C42.5017 1.30529 44.4544 1.01331 46.6442 0.940312H54.0897C55.0386 0.940312 55.9146 1.1228 56.7175 1.48778C57.557 1.85275 58.2869 2.34547 58.9074 2.96592C59.5278 3.58638 60.0205 4.31633 60.3855 5.15577C60.7505 5.95872 60.933 6.83466 60.933 7.7836V13.9152V39.3722C60.933 40.1021 61.1702 40.7226 61.6447 41.2336C62.1556 41.7445 62.7761 42 63.506 42ZM93.1452 3.56813V8.16682C93.1452 7.43687 92.8897 6.81641 92.3787 6.30545C91.9042 5.79448 91.302 5.539 90.5721 5.539H84.331C83.6011 5.539 82.9806 5.79448 82.4696 6.30545C81.9952 6.81641 81.7579 7.43687 81.7579 8.16682V39.4269C81.7579 40.1569 81.9952 40.7773 82.4696 41.2883C82.9806 41.7628 83.6011 42 84.331 42H73.765C74.4949 42 75.0971 41.7628 75.5716 41.2883C76.0826 40.7773 76.3381 40.1569 76.3381 39.4269V8.16682C76.3381 7.43687 76.0826 6.81641 75.5716 6.30545C75.0971 5.79448 74.4949 5.539 73.765 5.539H67.3049C66.575 5.5755 65.9545 5.84923 65.4436 6.36019C64.9691 6.83466 64.7319 7.43687 64.7319 8.16682V2.96592V3.23966C64.8049 2.6192 65.0786 2.08998 65.5531 1.65201C66.064 1.17755 66.648 0.940312 67.3049 0.940312H90.5721C91.302 0.940312 91.9042 1.19579 92.3787 1.70676C92.8897 2.21772 93.1452 2.83818 93.1452 3.56813ZM129.693 42H119.073C119.803 42 120.405 41.7445 120.879 41.2336C121.39 40.7226 121.646 40.1021 121.646 39.3722V33.6238C121.646 32.8939 121.39 32.2734 120.879 31.7625C120.405 31.2515 119.803 30.996 119.073 30.996H109.437C108.707 30.996 108.087 30.7588 107.576 30.2843C107.101 29.7733 106.864 29.1529 106.864 28.4229V23.8242C106.864 24.5542 107.101 25.1747 107.576 25.6856C108.087 26.1601 108.707 26.3973 109.437 26.3973H121.646V21.4154V8.11207C121.646 7.38212 121.39 6.77991 120.879 6.30545C120.405 5.79448 119.803 5.539 119.073 5.539H112.886C111.645 5.61199 110.496 5.81273 109.437 6.14121C108.379 6.43319 107.448 6.9259 106.645 7.61936C105.879 8.31281 105.258 9.22525 104.784 10.3567C104.346 11.4881 104.127 12.9115 104.127 14.6269V39.3722C104.127 40.1021 104.364 40.7226 104.839 41.2336C105.35 41.7445 105.97 42 106.7 42H96.134C96.8639 42 97.4661 41.7445 97.9406 41.2336C98.4515 40.7226 98.707 40.1021 98.707 39.3722V14.6269C98.707 10.2837 100.003 6.85291 102.594 4.33458C103.835 3.16666 105.295 2.32722 106.974 1.81625C108.689 1.30529 110.642 1.01331 112.832 0.940312H120.277C121.226 0.940312 122.102 1.1228 122.905 1.48778C123.744 1.85275 124.474 2.34547 125.095 2.96592C125.715 3.58638 126.208 4.31633 126.573 5.15577C126.938 5.95872 127.12 6.83466 127.12 7.7836V13.9152V39.3722C127.12 40.1021 127.358 40.7226 127.832 41.2336C128.343 41.7445 128.963 42 129.693 42ZM147.672 37.4013C148.402 37.4013 149.004 37.6568 149.478 38.1678C149.989 38.6422 150.245 39.2444 150.245 39.9744V42H140.336C139.387 42 138.492 41.8175 137.653 41.4525C136.85 41.0876 136.138 40.5948 135.518 39.9744C134.897 39.3539 134.405 38.6422 134.04 37.8393C133.675 36.9998 133.492 36.1057 133.492 35.1567V3.56813C133.492 2.83818 133.237 2.21772 132.726 1.70676C132.251 1.19579 131.649 0.940312 130.919 0.940312H141.54C140.81 0.940312 140.19 1.19579 139.679 1.70676C139.204 2.21772 138.967 2.83818 138.967 3.56813V34.8282C138.967 35.5582 139.204 36.1786 139.679 36.6896C140.19 37.1641 140.81 37.4013 141.54 37.4013H147.672ZM176.719 4.38933C179.347 6.87116 180.66 10.2837 180.66 14.6269V28.6967C180.66 33.0764 179.347 36.4889 176.719 38.9342C175.514 40.1021 174.054 40.8868 172.339 41.2883C170.66 41.6898 168.726 41.927 166.536 42C164.346 41.927 162.393 41.6898 160.678 41.2883C158.999 40.8868 157.539 40.1021 156.298 38.9342C153.707 36.4524 152.411 33.0399 152.411 28.6967V14.6269C152.411 10.2837 153.707 6.87116 156.298 4.38933C157.539 3.22141 158.999 2.38196 160.678 1.871C162.393 1.32354 164.346 1.01331 166.536 0.940312C168.726 1.01331 170.66 1.32354 172.339 1.871C174.054 2.38196 175.514 3.22141 176.719 4.38933ZM175.241 14.6269C175.241 12.948 175.003 11.5428 174.529 10.4114C174.091 9.24349 173.47 8.31281 172.668 7.61936C171.901 6.9259 170.989 6.43319 169.93 6.14121C168.872 5.81273 167.74 5.61199 166.536 5.539C165.332 5.61199 164.2 5.81273 163.142 6.14121C162.083 6.43319 161.153 6.9259 160.35 7.61936C159.583 8.31281 158.963 9.24349 158.488 10.4114C158.05 11.5428 157.831 12.948 157.831 14.6269V28.6967C157.831 30.412 158.05 31.8172 158.488 32.9121C158.963 34.007 159.583 34.883 160.35 35.5399C161.153 36.1604 162.083 36.6166 163.142 36.9086C164.2 37.2006 165.332 37.3648 166.536 37.4013C167.74 37.3648 168.872 37.2006 169.93 36.9086C170.989 36.6166 171.901 36.1604 172.668 35.5399C173.47 34.883 174.091 34.007 174.529 32.9121C175.003 31.8172 175.241 30.412 175.241 28.6967V14.6269ZM211.245 35.1567C211.245 36.1057 211.063 36.9998 210.698 37.8393C210.333 38.6422 209.84 39.3539 209.22 39.9744C208.599 40.5948 207.869 41.0876 207.03 41.4525C206.227 41.8175 205.351 42 204.402 42H197.011C194.821 41.9635 192.869 41.7445 191.153 41.343C189.474 40.9051 188.015 40.1021 186.774 38.9342C184.146 36.4889 182.832 33.0764 182.832 28.6967V14.6816C182.832 10.3019 184.146 6.87116 186.774 4.38933C188.015 3.22141 189.474 2.38196 191.153 1.871C192.869 1.32354 194.821 1.01331 197.011 0.940312H201.938C202.668 0.940312 203.271 1.19579 203.745 1.70676C204.256 2.21772 204.511 2.83818 204.511 3.56813V8.16682C204.511 7.43687 204.256 6.81641 203.745 6.30545C203.271 5.79448 202.668 5.539 201.938 5.539H197.066C195.825 5.61199 194.675 5.81273 193.617 6.14121C192.558 6.43319 191.628 6.94415 190.825 7.6741C190.022 8.36755 189.401 9.27999 188.963 10.4114C188.526 11.5428 188.307 12.9662 188.307 14.6816V28.6967C188.307 30.412 188.526 31.8172 188.963 32.9121C189.401 34.007 190.022 34.883 190.825 35.5399C191.628 36.1969 192.558 36.6714 193.617 36.9633C194.675 37.2188 195.825 37.3648 197.066 37.4013H203.198C203.927 37.4013 204.548 37.1641 205.059 36.6896C205.57 36.1786 205.825 35.5582 205.825 34.8282V26.3426C205.825 25.6126 205.57 25.0104 205.059 24.5359C204.548 24.025 203.927 23.7695 203.198 23.7695H193.617C192.887 23.7695 192.267 23.5323 191.756 23.0578C191.281 22.5468 191.044 21.9264 191.044 21.1964V16.5977C191.044 17.3277 191.281 17.9481 191.756 18.4591C192.267 18.9336 192.887 19.1708 193.617 19.1708H208.672C209.366 19.1708 209.95 19.408 210.424 19.8825C210.898 20.3205 211.172 20.8679 211.245 21.5249V35.1567Z" fill="white"/>
</svg>
